<svg height="494" width="720" xmlns="http://www.w3.org/2000/svg">
<rect height="494" fill="#555" width="720"></rect>
<text fill="#7f7" font-family="Courier New" font-size="12" xml:space="preserve">
<tspan x="10" y="26">21 megabytes installed</tspan>
<tspan x="10" y="42"></tspan>
<tspan x="10" y="58">node_modules</tspan>
<tspan x="10" y="74">├── UNMET PEER DEPENDENCY react@&gt;=0.14.1</tspan>
<tspan x="10" y="90">└─┬ react-youtube@7.4.0 </tspan>
<tspan x="10" y="106">  ├── lodash.isequal@4.5.0 </tspan>
<tspan x="10" y="122">  ├─┬ prop-types@15.5.8 </tspan>
<tspan x="10" y="138">  │ └─┬ fbjs@0.8.12 </tspan>
<tspan x="10" y="154">  │   ├── core-js@1.2.7 </tspan>
<tspan x="10" y="170">  │   ├─┬ isomorphic-fetch@2.2.1 </tspan>
<tspan x="10" y="186">  │   │ ├─┬ node-fetch@1.6.3 </tspan>
<tspan x="10" y="202">  │   │ │ ├─┬ encoding@0.1.12 </tspan>
<tspan x="10" y="218">  │   │ │ │ └── iconv-lite@0.4.15 </tspan>
<tspan x="10" y="234">  │   │ │ └── is-stream@1.1.0 </tspan>
<tspan x="10" y="250">  │   │ └── whatwg-fetch@2.0.3 </tspan>
<tspan x="10" y="266">  │   ├─┬ loose-envify@1.3.1 </tspan>
<tspan x="10" y="282">  │   │ └── js-tokens@3.0.1 </tspan>
<tspan x="10" y="298">  │   ├── object-assign@4.1.1 </tspan>
<tspan x="10" y="314">  │   ├─┬ promise@7.1.1 </tspan>
<tspan x="10" y="330">  │   │ └── asap@2.0.5 </tspan>
<tspan x="10" y="346">  │   ├── setimmediate@1.0.5 </tspan>
<tspan x="10" y="362">  │   └── ua-parser-js@0.7.12 </tspan>
<tspan x="10" y="378">  └─┬ youtube-player@4.2.3 </tspan>
<tspan x="10" y="394">    ├─┬ babel-runtime@6.23.0 </tspan>
<tspan x="10" y="410">    │ ├── core-js@2.4.1 </tspan>
<tspan x="10" y="426">    │ └── regenerator-runtime@0.10.3 </tspan>
<tspan x="10" y="442">    ├── load-script@1.0.0 </tspan>
<tspan x="10" y="458">    ├── lodash@4.17.4 </tspan>
<tspan x="10" y="474">    └── sister@3.0.0</tspan>
</text>
</svg>
